<?xml version="1.0" encoding="UTF-8"?>
<svg xmlns="http://www.w3.org/2000/svg" viewBox="0 0 128 128" width="128" height="128">
  <defs>
    <linearGradient id="g" x1="0%" y1="0%" x2="100%" y2="100%">
      <stop offset="0%" stop-color="#3b82f6"/>
      <stop offset="100%" stop-color="#1e40af"/>
    </linearGradient>
  </defs>
  <rect width="128" height="128" rx="24" fill="url(#g)"/>
  <g fill="none" stroke="#fff" stroke-width="4" stroke-linecap="round" stroke-linejoin="round">
    <!-- 流程图节点 -->
    <rect x="22" y="20" width="36" height="20" rx="3"/>
    <rect x="22" y="54" width="36" height="20" rx="3"/>
    <rect x="22" y="88" width="36" height="20" rx="3"/>
    <rect x="70" y="54" width="36" height="20" rx="3"/>

    <!-- 连接线 -->
    <path d="M 40 40 L 40 54"/>
    <path d="M 40 74 L 40 88"/>
    <path d="M 58 64 L 70 64"/>
    <path d="M 88 64 L 88 30 M 88 30 L 58 30"/>

    <!-- 标注 -->
    <circle cx="40" cy="47" r="2" fill="#fbbf24"/>
    <circle cx="40" cy="81" r="2" fill="#fbbf24"/>
    <circle cx="64" cy="64" r="2" fill="#fbbf24"/>
  </g>
  <text x="64" y="118" text-anchor="middle" fill="#fff" font-size="9" font-family="sans-serif" opacity="0.8">A2D</text>
</svg>